<svg xmlns="http://www.w3.org/2000/svg" viewBox="0 0 30 34" enable-background="new 0 0 30 34"><path d="M30 22.499c0 1.1-.749 2.5-1.665 3.111l-11.67 7.78c-.916.61-2.414.61-3.33 0l-11.67-7.78c-.916-.611-1.665-2.01-1.665-3.111v-10.998c0-1.1.749-2.5 1.665-3.111l11.67-7.78c.916-.61 2.414-.61 3.33 0l11.67 7.78c.916.611 1.665 2.01 1.665 3.111v10.998z" fill="#8360A8"/><g><path d="M15.737 24.139l5.86.861h1.134c1.253 0 2.269-.895 2.269-2v-1.5c0-.276-.254-.5-.567-.5-.313 0-.567.224-.567.5v.5c0 .366-.503.547-.794.286l-2.32-2.088c-.851-.766-2.015-1.198-3.231-1.198h-.061c-1.106 0-2.046.585-2.46 1.418-.413-.833-1.354-1.418-2.46-1.418h-.061c-1.216 0-2.381.432-3.232 1.198l-2.32 2.088c-.29.261-.794.08-.794-.286v-.5c0-.276-.254-.5-.567-.5-.312 0-.566.224-.566.5v1.5c0 1.105 1.016 2 2.269 2h1.134l5.86-.861h1.474z" fill="#fff"/><path d="M9 15.5c-1.93 0-3.5-1.57-3.5-3.5s1.57-3.5 3.5-3.5 3.5 1.57 3.5 3.5-1.57 3.5-3.5 3.5z" fill="#8360A8"/><path d="M9 9c1.654 0 3 1.346 3 3s-1.346 3-3 3-3-1.346-3-3 1.346-3 3-3m0-1c-2.209 0-4 1.791-4 4s1.791 4 4 4 4-1.791 4-4-1.791-4-4-4z" fill="#fff"/><path d="M19 12.366c.512-.226 1.219-.366 2-.366s1.488.14 2 .366" fill="#56A4CA" stroke="#fff" stroke-linecap="round" stroke-linejoin="round" stroke-miterlimit="10"/></g></svg>